<svg width="127" height="23" viewBox="0 0 127 23" fill="none" xmlns="http://www.w3.org/2000/svg">
<path fill-rule="evenodd" clip-rule="evenodd" d="M79.2284 7.94597C79.2284 10.13 77.9277 11.8827 75.8499 12.6677L78.3325 15.797C78.6806 16.2416 78.8687 16.68 78.8687 17.0862C78.8687 17.6088 78.6742 18.0619 78.3312 18.3847C77.9882 18.7074 77.5067 18.8904 76.9514 18.8904C76.293 18.8904 75.7668 18.6139 75.3559 18.1064L75.3552 18.1055L71.6151 13.3385H69.3475V16.9959C69.3475 18.0981 68.5055 18.8904 67.3343 18.8904C66.1856 18.8904 65.345 18.0966 65.345 16.9959V4.53816C65.345 3.4586 66.187 2.66624 67.3343 2.66624H73.0182C74.8503 2.66624 76.3311 3.15 77.494 4.12791C78.66 5.10838 79.2284 6.39377 79.2284 7.94597ZM93.71 17.762C95.1657 17.762 96.3603 17.3691 97.2588 16.573C97.2278 17.5186 96.8913 18.2431 96.3087 18.7386C95.6943 19.2607 94.7855 19.5474 93.6139 19.5474C92.4693 19.5474 91.3208 19.262 90.1413 18.6848L90.1365 18.6824L90.1309 18.6804C89.7452 18.5213 89.4062 18.419 89.1292 18.419C88.6704 18.419 88.2775 18.5678 87.9997 18.8358C87.7219 19.1033 87.5719 19.4775 87.5719 19.9073C87.5719 20.4922 87.9005 20.9668 88.5149 21.3047C89.9619 22.181 91.7692 22.6141 93.902 22.6141C96.1658 22.6141 97.9414 21.9946 99.2035 20.737C100.462 19.4833 101.095 17.7943 101.095 15.7095V8.37476C101.095 7.88594 100.912 7.46145 100.594 7.1587C100.276 6.85588 99.8306 6.68341 99.3218 6.68341C98.4605 6.68341 97.8025 7.1896 97.6041 7.93339C96.5992 7.03051 95.3371 6.57057 93.8298 6.57057C91.9939 6.57057 90.4635 7.10171 89.2538 8.19398L89.253 8.1946L89.2523 8.19506C88.068 9.28618 87.4758 10.6359 87.4758 12.234C87.4758 13.767 88.0704 15.0715 89.2777 16.1611L89.2784 16.1617L89.2792 16.1623C90.4865 17.2294 91.9677 17.762 93.71 17.762ZM97.3802 12.2565C97.3802 12.9781 97.0897 13.5913 96.4992 14.1047C95.9332 14.5946 95.207 14.8532 94.3331 14.8532C93.4615 14.8532 92.7352 14.5956 92.1439 14.1048C91.5771 13.5912 91.2866 12.9776 91.2866 12.2565C91.2866 11.534 91.5779 10.9209 92.1439 10.431V10.4309C92.7344 9.91799 93.4607 9.65985 94.3331 9.65985C95.207 9.65985 95.9317 9.91829 96.4968 10.4287L96.4992 10.431L96.5016 10.433C97.0897 10.9226 97.3802 11.5344 97.3802 12.2565ZM123.042 14.3103V9.7727H125.442C125.902 9.7727 126.294 9.62389 126.572 9.35594C126.85 9.08845 127 8.71424 127 8.28453C127 7.85473 126.85 7.48058 126.572 7.21307C126.294 6.94515 125.902 6.79625 125.442 6.79625H123.042V5.68915C123.042 5.16785 122.856 4.71994 122.518 4.40195C122.179 4.08397 121.704 3.9075 121.149 3.9075C120.596 3.9075 120.115 4.08379 119.771 4.40088C119.427 4.71825 119.232 5.16629 119.232 5.68915V6.79625H118.415C117.946 6.79625 117.548 6.94436 117.265 7.21238C116.984 7.48011 116.834 7.85473 116.834 8.28453C116.834 8.71432 116.984 9.08891 117.265 9.35663C117.548 9.62458 117.946 9.7727 118.415 9.7727H119.232V15.1453C119.232 16.3522 119.634 17.3219 120.375 17.9893C121.114 18.6558 122.173 19.0033 123.452 19.0033C124.234 19.0033 124.969 18.9113 125.656 18.7263L125.662 18.7248L125.667 18.723C126.084 18.5802 126.413 18.3733 126.639 18.0986C126.865 17.8225 126.976 17.4888 126.976 17.1088C126.976 16.6564 126.819 16.274 126.52 16.0051C126.221 15.7371 125.799 15.5979 125.299 15.5979C125.266 15.5979 125.207 15.6059 125.152 15.6132L125.149 15.6136L125.106 15.6193V15.6194C125.051 15.6268 124.985 15.6356 124.915 15.6444C124.732 15.6668 124.519 15.6881 124.339 15.6881C123.878 15.6881 123.565 15.5674 123.363 15.3543C123.159 15.1376 123.042 14.7982 123.042 14.3103ZM69.3475 5.89101H72.5626C73.4055 5.89101 74.0699 6.1243 74.5216 6.51291C74.9721 6.90038 75.2259 7.45469 75.2259 8.12652C75.2259 8.79835 74.9721 9.35265 74.5216 9.7402C74.0699 10.1287 73.4055 10.3621 72.5626 10.3621H69.3475V5.89101ZM83.4849 5.80073C84.7946 5.80073 85.7383 4.94552 85.7383 3.74827C85.7383 2.57481 84.7961 1.6958 83.4849 1.6958C82.1514 1.6958 81.2076 2.57363 81.2076 3.74827C81.2076 4.341 81.4402 4.85672 81.8466 5.22392C82.253 5.59073 82.8237 5.80073 83.4849 5.80073ZM83.4849 6.68341C82.9173 6.68341 82.4292 6.87241 82.0839 7.20096C81.7378 7.52929 81.5434 7.98775 81.5434 8.51023V17.0636C81.5434 17.5861 81.7378 18.0446 82.0839 18.3729C82.4292 18.7015 82.9173 18.8904 83.4849 18.8904C84.0421 18.8904 84.5239 18.7007 84.866 18.3723C85.2081 18.0441 85.4026 17.586 85.4026 17.0636V8.51023C85.4026 7.98775 85.2081 7.52966 84.866 7.20149C84.5239 6.87307 84.0421 6.68341 83.4849 6.68341ZM111.156 6.57057C109.607 6.57057 108.364 7.07618 107.461 8.10566V4.33505C107.461 3.32319 106.643 2.55339 105.567 2.55339C105.014 2.55339 104.532 2.72969 104.189 3.04677C103.845 3.36415 103.65 3.81218 103.65 4.33505V17.0862C103.65 17.6088 103.845 18.0619 104.187 18.3847C104.53 18.7074 105.012 18.8904 105.567 18.8904C106.123 18.8904 106.599 18.7072 106.936 18.3835C107.274 18.0602 107.461 17.6073 107.461 17.0862V12.5284C107.473 11.6429 107.739 10.9905 108.166 10.5608C108.59 10.1323 109.191 9.90817 109.909 9.90817C110.586 9.90817 111.142 10.13 111.533 10.5611C111.924 10.9952 112.164 11.6599 112.164 12.5725V17.0862C112.164 17.6073 112.352 18.0602 112.689 18.3835C113.026 18.7072 113.501 18.8904 114.057 18.8904C114.613 18.8904 115.094 18.7074 115.437 18.3847C115.78 18.0619 115.974 17.6088 115.974 17.0862V11.5118C115.974 9.99189 115.509 8.77481 114.584 7.90365C113.664 7.01498 112.517 6.57057 111.156 6.57057ZM39.4683 3.02101C39.9184 3.33565 40.2703 3.80181 40.5303 4.40722L45.687 15.8955L45.6878 15.8975C45.8579 16.3092 45.963 16.6696 45.963 16.9925C45.963 17.537 45.763 18.0123 45.4086 18.352C45.0539 18.6921 44.5541 18.887 43.9737 18.887C43.5001 18.887 43.0912 18.772 42.7545 18.5305C42.4201 18.2906 42.1708 17.9356 41.9954 17.4772L41.1274 15.4566H34.3257L33.4808 17.455L33.4804 17.4558C33.2938 17.9122 33.0458 18.271 32.726 18.5161C32.4033 18.7633 32.0176 18.887 31.5746 18.887C30.4544 18.887 29.6333 18.1201 29.6333 17.1053C29.6333 16.8253 29.7401 16.4855 29.9085 16.0782L29.9094 16.0759L35.1631 4.40479L35.1637 4.40367C35.4476 3.79944 35.8112 3.3345 36.2633 3.02069C36.7173 2.70556 37.2504 2.55001 37.8581 2.55001C38.4768 2.55001 39.0164 2.70509 39.4683 3.02101ZM35.5363 12.4124L37.7374 7.13231L39.9171 12.4124H35.5363ZM49.4509 2.55001C48.8847 2.55001 48.3971 2.73233 48.0507 3.05521C47.7042 3.37815 47.5097 3.83154 47.5097 4.35423V17.0602C47.5097 17.5827 47.704 18.0411 48.0496 18.3694C48.3953 18.698 48.883 18.887 49.4509 18.887C50.008 18.887 50.4896 18.6973 50.832 18.3689C51.174 18.0407 51.3682 17.5827 51.3682 17.0602V4.35423C51.3682 3.8316 51.1738 3.37851 50.8309 3.05574C50.4878 2.73296 50.0063 2.55001 49.4509 2.55001ZM56.1024 2.55001C55.5361 2.55001 55.0486 2.73233 54.7021 3.05521C54.3557 3.37815 54.1612 3.83154 54.1612 4.35423V17.0602C54.1612 17.5827 54.3554 18.0411 54.701 18.3694C55.0468 18.698 55.5345 18.887 56.1024 18.887C56.6595 18.887 57.1411 18.6973 57.4834 18.3689C57.8255 18.0407 58.0198 17.5827 58.0198 17.0602V4.35423C58.0198 3.8316 57.8253 3.37851 57.4823 3.05574C57.1394 2.73296 56.6578 2.55001 56.1024 2.55001Z" fill="#823CDC"/>
<path fill-rule="evenodd" clip-rule="evenodd" d="M9.77567 19.5115C9.31386 18.6699 9.66303 17.6345 10.5558 17.199C12.5665 16.2181 16.2794 14.0837 19.0249 11.6358C20.4069 10.4035 21.4194 9.20029 21.9108 8.12711C22.3734 7.11713 22.3231 6.37653 21.8691 5.7187C20.9787 4.42823 18.9786 3.75367 17.0291 4.29669C15.2587 4.78984 13.3996 6.37793 13.2101 9.9228C13.2002 10.1078 13.1701 10.5349 12.9337 10.9505C12.7973 11.1902 12.5318 11.5317 12.0571 11.7465C11.5595 11.9717 11.0717 11.95 10.7206 11.8615C10.1601 11.72 9.79718 11.3743 9.68923 11.2715L9.68693 11.2693C9.5196 11.11 9.36903 10.9317 9.24703 10.7789C9.02399 10.4993 8.76784 10.1398 8.51718 9.78817C8.49328 9.75459 8.46939 9.72109 8.44558 9.68774C8.15856 9.28524 7.85202 8.85843 7.51963 8.43132C6.83413 7.55054 6.13713 6.80061 5.46628 6.3584C4.8296 5.93874 4.47984 5.95114 4.21107 6.05381C3.80748 6.20799 3.71596 6.37912 3.67021 6.57862C3.59858 6.89086 3.63376 7.47113 4.01196 8.34492C4.76132 10.0761 6.56453 12.2742 9.09772 14.2222C9.87663 14.8211 9.99307 15.902 9.35784 16.6363C8.7226 17.3708 7.57615 17.4806 6.79723 16.8817C3.96119 14.7008 1.69159 12.0666 0.641924 9.64158C0.120585 8.43715 -0.17532 7.1084 0.112573 5.85325C0.426325 4.48534 1.38491 3.43068 2.8442 2.87321C4.67315 2.1745 6.33989 2.74694 7.55185 3.54582C8.65283 4.27156 9.58437 5.30385 10.3064 6.21295C11.3832 3.45245 13.5121 1.69797 15.9978 1.00555C19.2389 0.10269 23.0161 1.08795 24.9201 3.84716C26.2114 5.7185 26.0579 7.72921 25.2526 9.48756C24.4763 11.1826 23.0565 12.7644 21.5259 14.1292C18.4461 16.8751 14.4124 19.1815 12.2284 20.247C11.3358 20.6825 10.2376 20.3532 9.77567 19.5115Z" fill="#FE8B21"/>
</svg>
