<svg width="124" height="118" viewBox="0 0 124 118" fill="none" xmlns="http://www.w3.org/2000/svg">
<path d="M0.327148 89.9415L61.4246 52.9749L105.183 76.9873L47.1533 116.812L0.327148 89.9415Z" fill="#A5643A"/>
<path d="M57.0288 106.127L46.2644 112.637L45.9839 99.3559L56.8791 99.1224L57.0288 106.127Z" fill="url(#paint0_linear_88_1988)"/>
<path d="M4.04033 89.4559L46.2652 112.637L45.9846 99.356L3.75977 76.1748L4.04033 89.4559Z" fill="url(#paint1_linear_88_1988)"/>
<path d="M44.0859 113.954C47.3124 115.728 49.8842 114.197 49.8094 110.536C49.6452 108.545 49.0167 106.62 47.9741 104.916C46.9315 103.211 45.5038 101.774 43.8053 100.72L0.0373535 76.6604V74.2975L43.7866 98.3099C48.1821 100.72 51.8201 106.716 51.923 111.675C52.0259 116.634 48.5562 118.717 44.1701 116.345L0.374031 92.3138V89.9602L44.0859 113.954Z" fill="url(#paint2_linear_88_1988)"/>
<path d="M104.856 61.3526L43.7493 98.3192L0 74.2974L61.0975 37.3308L104.856 61.3526Z" fill="#EB957C"/>
<path d="M104.856 61.3432L43.7495 98.3098C48.145 100.719 51.783 106.716 51.8859 111.675C51.942 114.159 51.1003 115.915 49.6975 116.756L110.795 79.7985C112.179 78.9486 113.002 77.2021 112.946 74.7457C112.89 69.8424 109.458 63.8182 104.856 61.3432Z" fill="url(#paint3_linear_88_1988)"/>
<path d="M11.0449 70.9632L72.9186 35.2948L116.154 60.2225L57.2912 98.8142L11.0449 70.9632Z" fill="#061C37"/>
<path d="M67.3916 88.335L56.4963 94.6207V81.3396H67.3916V88.335Z" fill="url(#paint4_linear_88_1988)"/>
<path d="M14.7668 70.5616L56.4961 94.6207V81.3396L14.7668 57.2805V70.5616Z" fill="url(#paint5_linear_88_1988)"/>
<path d="M54.6634 86.299L49.5291 83.3383V89.4932L51.7923 89.185L54.6634 92.4539V86.299Z" fill="url(#paint6_linear_88_1988)"/>
<path d="M54.2801 95.8909C57.4692 97.7589 60.0691 96.2552 60.0691 92.594C59.9552 90.5931 59.3719 88.6471 58.3663 86.9128C57.3608 85.1785 55.9611 83.7045 54.2801 82.6098L11.0452 57.6728V55.3192L54.2801 80.2469C58.6102 82.7499 62.1266 88.8114 62.1266 93.7801C62.1266 98.7489 58.6102 100.748 54.2801 98.2539L11.0359 73.3168V70.9632L54.2801 95.8909Z" fill="url(#paint7_linear_88_1988)"/>
<path d="M116.154 44.5784L54.2892 80.2468L11.0449 55.3191L72.9186 19.6507L116.154 44.5784Z" fill="url(#paint8_linear_88_1988)"/>
<path d="M116.153 44.5785L54.2798 80.2469C58.6098 82.7499 62.1262 88.8114 62.1262 93.7802C62.1262 96.2645 61.2565 98.0017 59.835 98.8143L121.699 63.1459H121.746C123.14 62.324 124 60.5868 124 58.1304C124.009 53.2364 120.68 47.1469 116.153 44.5785Z" fill="url(#paint9_linear_88_1988)"/>
<path d="M97.543 71.2621C93.9237 71.2621 91.249 76.0627 91.249 85.9815C91.249 87.9802 94.0547 89.6053 97.543 89.6053C101.031 89.6053 103.837 87.9802 103.837 85.9815C103.846 76.0627 101.162 71.2621 97.543 71.2621Z" fill="url(#paint10_linear_88_1988)"/>
<path d="M101.162 71.2621C101.164 71.9774 100.953 72.6771 100.557 73.2728C100.16 73.8684 99.5956 74.3331 98.9344 74.6081C98.2732 74.8831 97.5452 74.956 96.8425 74.8176C96.1398 74.6792 95.4941 74.3357 94.987 73.8306C94.4799 73.3255 94.1342 72.6814 93.9938 71.98C93.8534 71.2787 93.9245 70.5514 94.1982 69.8904C94.4719 69.2294 94.9357 68.6644 95.5311 68.2668C96.1265 67.8692 96.8266 67.657 97.5428 67.657C98.5011 67.657 99.4203 68.0365 100.099 68.7123C100.777 69.3882 101.16 70.3051 101.162 71.2621Z" fill="url(#paint11_linear_88_1988)"/>
<path d="M40.4666 32.0352C40.4666 40.6184 52.5495 47.5765 67.4568 47.5765C82.3641 47.5765 94.4938 40.6184 94.4938 32.0352V56.496C94.4938 65.0792 82.4109 72.0373 67.5036 72.0373C52.5963 72.0373 40.5133 65.0792 40.5133 56.496L40.4666 32.0352Z" fill="url(#paint12_linear_88_1988)"/>
<path d="M11.7273 32.2314L67.2883 64.2666L123.186 32.0352V34.585L67.2883 66.8163L11.7273 34.7811V32.2314Z" fill="#061C37"/>
<path d="M123.186 32.0352L67.2883 64.2666L11.7273 32.2314L67.6343 0L123.186 32.0352Z" fill="url(#paint13_linear_88_1988)"/>
<path d="M97.5425 68.5068C97.3168 68.5068 97.1003 68.4173 96.9407 68.2579C96.7811 68.0985 96.6915 67.8823 96.6915 67.6569V56.2531C96.6881 54.3276 96.1784 52.4367 95.2134 50.7697C94.2483 49.1028 92.8617 47.7182 91.1924 46.7546L67.0358 32.8664C66.84 32.7548 66.6966 32.5702 66.637 32.3531C66.5774 32.1359 66.6065 31.9041 66.7179 31.7083C66.8314 31.5122 67.018 31.3687 67.2369 31.3092C67.4559 31.2498 67.6895 31.2791 67.8869 31.3908L92.0341 45.2789C93.965 46.3901 95.5692 47.9892 96.6855 49.9155C97.8018 51.8418 98.3908 54.0275 98.3935 56.2531V67.6569C98.3935 67.8823 98.3039 68.0985 98.1443 68.2579C97.9847 68.4173 97.7682 68.5068 97.5425 68.5068Z" fill="#CD8966"/>
<defs>
<linearGradient id="paint0_linear_88_1988" x1="44.1993" y1="106.031" x2="78.2428" y2="105.311" gradientUnits="userSpaceOnUse">
<stop offset="0.01" stop-color="#9E9B99"/>
<stop offset="1" stop-color="#F5F4EF"/>
</linearGradient>
<linearGradient id="paint1_linear_88_1988" x1="51.9554" y1="105.316" x2="-22.269" y2="105.463" gradientUnits="userSpaceOnUse">
<stop offset="0.01" stop-color="#CECDCC"/>
<stop offset="1" stop-color="#F5F4EF"/>
</linearGradient>
<linearGradient id="paint2_linear_88_1988" x1="95.5507" y1="152.275" x2="-4.43564" y2="74.4303" gradientUnits="userSpaceOnUse">
<stop stop-color="#CD8966"/>
<stop offset="1" stop-color="#A5643A"/>
</linearGradient>
<linearGradient id="paint3_linear_88_1988" x1="83.0659" y1="96.5446" x2="66.1147" y2="69.5699" gradientUnits="userSpaceOnUse">
<stop stop-color="#CD8966"/>
<stop offset="1" stop-color="#EB957C"/>
</linearGradient>
<linearGradient id="paint4_linear_88_1988" x1="54.5698" y1="87.9801" x2="88.6303" y2="87.9801" gradientUnits="userSpaceOnUse">
<stop offset="0.01" stop-color="#9E9B99"/>
<stop offset="1" stop-color="#F5F4EF"/>
</linearGradient>
<linearGradient id="paint5_linear_88_1988" x1="62.0246" y1="89.5675" x2="-12.0681" y2="88.4256" gradientUnits="userSpaceOnUse">
<stop offset="0.01" stop-color="#CECDCC"/>
<stop offset="1" stop-color="#F5F4EF"/>
</linearGradient>
<linearGradient id="paint6_linear_88_1988" x1="49.314" y1="95.536" x2="54.3523" y2="81.6716" gradientUnits="userSpaceOnUse">
<stop stop-color="#314C6F"/>
<stop offset="0.33" stop-color="#334F73"/>
<stop offset="0.51" stop-color="#3F5B80"/>
<stop offset="0.66" stop-color="#38567C"/>
<stop offset="0.79" stop-color="#345A8A"/>
<stop offset="0.91" stop-color="#426A9C"/>
<stop offset="1" stop-color="#294467"/>
</linearGradient>
<linearGradient id="paint7_linear_88_1988" x1="75.0045" y1="19.4266" x2="-13.7544" y2="149.872" gradientUnits="userSpaceOnUse">
<stop stop-color="#2C5060"/>
<stop offset="1" stop-color="#0C0500"/>
</linearGradient>
<linearGradient id="paint8_linear_88_1988" x1="2.69347" y1="72.4015" x2="233.543" y2="-12.9293" gradientUnits="userSpaceOnUse">
<stop stop-color="#3E5F89"/>
<stop offset="1" stop-color="#578FD7"/>
</linearGradient>
<linearGradient id="paint9_linear_88_1988" x1="72.956" y1="45.9421" x2="117.312" y2="117.388" gradientUnits="userSpaceOnUse">
<stop offset="0.23" stop-color="#406FAC"/>
<stop offset="0.37" stop-color="#315B92"/>
<stop offset="0.53" stop-color="#2E5486"/>
<stop offset="0.69" stop-color="#386196"/>
<stop offset="0.85" stop-color="#2F578A"/>
<stop offset="1" stop-color="#0B1725"/>
</linearGradient>
<linearGradient id="paint10_linear_88_1988" x1="57.9741" y1="80.4337" x2="104.566" y2="80.4337" gradientUnits="userSpaceOnUse">
<stop stop-color="#F5F4EF"/>
<stop offset="0.17" stop-color="#F4F1EB"/>
<stop offset="0.34" stop-color="#F0E8DF"/>
<stop offset="0.51" stop-color="#EBD8CB"/>
<stop offset="0.68" stop-color="#E2C2B0"/>
<stop offset="0.85" stop-color="#D8A78C"/>
<stop offset="1" stop-color="#CD8966"/>
</linearGradient>
<linearGradient id="paint11_linear_88_1988" x1="71.9273" y1="71.2621" x2="103.491" y2="71.2621" gradientUnits="userSpaceOnUse">
<stop stop-color="#F5F4EF"/>
<stop offset="0.17" stop-color="#F4F1EB"/>
<stop offset="0.34" stop-color="#F0E8DF"/>
<stop offset="0.51" stop-color="#EBD8CB"/>
<stop offset="0.68" stop-color="#E2C2B0"/>
<stop offset="0.85" stop-color="#D8A78C"/>
<stop offset="1" stop-color="#CD8966"/>
</linearGradient>
<linearGradient id="paint12_linear_88_1988" x1="-34.4721" y1="52.0316" x2="110.149" y2="52.0316" gradientUnits="userSpaceOnUse">
<stop stop-color="#4A6E9C"/>
<stop offset="1" stop-color="#0A111B"/>
</linearGradient>
<linearGradient id="paint13_linear_88_1988" x1="-11.7279" y1="32.138" x2="267.05" y2="32.138" gradientUnits="userSpaceOnUse">
<stop stop-color="#40699E"/>
<stop offset="1" stop-color="#0C1928"/>
</linearGradient>
</defs>
</svg>
