<svg width="24" height="24" viewBox="0 0 24 24" fill="none" xmlns="http://www.w3.org/2000/svg">
<path d="M4 10H20V18C20 18.2652 19.8946 18.5196 19.7071 18.7071C19.5196 18.8946 19.2652 19 19 19H5C4.73478 19 4.48043 18.8946 4.29289 18.7071C4.10536 18.5196 4 18.2652 4 18V10Z" stroke="#65A7FF" stroke-width="2" stroke-linecap="round" stroke-linejoin="round"/>
<path d="M8 3C8.86035 3.13731 9.67425 3.48227 10.3712 4.00501C11.0682 4.52775 11.6273 5.21251 12 6" stroke="#65A7FF" stroke-width="2" stroke-linecap="round" stroke-linejoin="round"/>
<path d="M16 3C15.1397 3.13731 14.3257 3.48227 13.6288 4.00501C12.9318 4.52775 12.3727 5.21251 12 6" stroke="#65A7FF" stroke-width="2" stroke-linecap="round" stroke-linejoin="round"/>
<path d="M12 19V6M20 10H4C3.73478 10 3.48043 9.89464 3.29289 9.70711C3.10536 9.51957 3 9.26522 3 9V7C3 6.73478 3.10536 6.48043 3.29289 6.29289C3.48043 6.10536 3.73478 6 4 6H20C20.2652 6 20.5196 6.10536 20.7071 6.29289C20.8946 6.48043 21 6.73478 21 7V9C21 9.26522 20.8946 9.51957 20.7071 9.70711C20.5196 9.89464 20.2652 10 20 10Z" stroke="#65A7FF" stroke-width="2" stroke-linecap="round" stroke-linejoin="round"/>
</svg>
