<svg width="16" height="17" viewBox="0 0 16 17" fill="none" xmlns="http://www.w3.org/2000/svg">
<path d="M4.66667 11.7892H7.33333M9.52667 6.64917L10.6667 7.78917H13.3333C13.5101 7.78917 13.6797 7.85941 13.8047 7.98444C13.9298 8.10946 14 8.27903 14 8.45584V13.7892C14 13.966 13.9298 14.1356 13.8047 14.2606C13.6797 14.3856 13.5101 14.4558 13.3333 14.4558H2.66667C2.48986 14.4558 2.32029 14.3856 2.19526 14.2606C2.07024 14.1356 2 13.966 2 13.7892V7.12251C2 6.9457 2.07024 6.77613 2.19526 6.6511C2.32029 6.52608 2.48986 6.45584 2.66667 6.45584H9.06C9.23489 6.45658 9.40249 6.52601 9.52667 6.64917ZM12.6667 7.78917V3.12251C12.6667 2.9457 12.5964 2.77613 12.4714 2.6511C12.3464 2.52608 12.1768 2.45584 12 2.45584H4C3.82319 2.45584 3.65362 2.52608 3.5286 2.6511C3.40357 2.77613 3.33333 2.9457 3.33333 3.12251V6.45584H9.06C9.23489 6.45658 9.40249 6.52601 9.52667 6.64917L10.6667 7.78917H12.6667Z" stroke="#65A7FF" stroke-width="2" stroke-linecap="round" stroke-linejoin="round"/>
</svg>
