<svg width="20" height="20" viewBox="0 0 20 20" fill="none" xmlns="http://www.w3.org/2000/svg">
<path d="M15 19H5M19 4.00001V6.00001C19.0014 7.02547 18.6089 8.01231 17.9036 8.7567C17.1983 9.50109 16.2341 9.94617 15.21 10C15.2995 9.67309 15.3564 9.33813 15.38 9L15.77 4.00001H19ZM4.6 8.79001L4.23 4.00001H1V6.00001C0.999069 7.03206 1.39708 8.02454 2.11084 8.76999C2.82461 9.51543 3.79888 9.95614 4.83 10C4.70761 9.60672 4.63044 9.20077 4.6 8.79001V8.79001ZM12.1 13.57C11.2524 13.9315 10.3261 14.0692 9.41 13.97C8.89223 13.9156 8.38613 13.7806 7.91 13.57L7 19H13L12.1 13.57ZM5.08 1.00001H14.92C15.0583 0.999562 15.1953 1.02782 15.3221 1.08301C15.449 1.13819 15.563 1.21909 15.657 1.32059C15.751 1.4221 15.8229 1.542 15.8681 1.67271C15.9134 1.80343 15.9311 1.94211 15.92 2.08001L15.38 9C15.3306 9.72836 15.1341 10.4392 14.8023 11.0894C14.4704 11.7397 14.0102 12.3159 13.4494 12.7832C12.8885 13.2506 12.2388 13.5994 11.5393 13.8085C10.8399 14.0176 10.1053 14.0828 9.38 14C8.10259 13.8209 6.9272 13.2032 6.05517 12.2527C5.18313 11.3022 4.6687 10.0781 4.6 8.79001L4.08 2.08001C4.06893 1.94211 4.0866 1.80343 4.13187 1.67271C4.17715 1.542 4.24905 1.4221 4.34304 1.32059C4.43702 1.21909 4.55104 1.13819 4.6779 1.08301C4.80475 1.02782 4.94167 0.999562 5.08 1.00001V1.00001Z" stroke="#3A3A3A" stroke-linecap="round" stroke-linejoin="round"/>
</svg>
