<svg width="16" height="17" viewBox="0 0 16 17" fill="none" xmlns="http://www.w3.org/2000/svg">
<path d="M8 10.4558C10.2091 10.4558 12 8.66498 12 6.45584C12 4.2467 10.2091 2.45584 8 2.45584C5.79086 2.45584 4 4.2467 4 6.45584C4 8.66498 5.79086 10.4558 8 10.4558Z" stroke="#65A7FF" stroke-width="2" stroke-linecap="round" stroke-linejoin="round"/>
<path d="M4.97317 9.29585C4.30471 9.51225 3.72173 9.93434 3.30747 10.5018C2.89322 11.0694 2.66888 11.7532 2.6665 12.4559V13.1225C2.6665 13.1225 3.99984 14.4559 7.99984 14.4559C11.9998 14.4559 13.3332 13.1225 13.3332 13.1225V12.4559C13.3299 11.7479 13.1014 11.0594 12.6807 10.4901C12.26 9.92075 11.6689 9.50014 10.9932 9.28918" stroke="#65A7FF" stroke-width="2" stroke-linecap="round" stroke-linejoin="round"/>
</svg>
