<svg width="16" height="17" viewBox="0 0 16 17" fill="none" xmlns="http://www.w3.org/2000/svg">
<path d="M13.96 7.78917C13.9868 8.01038 14.0002 8.23301 14 8.45584C14 9.64253 13.6481 10.8026 12.9888 11.7893C12.3295 12.776 11.3925 13.545 10.2961 13.9991C9.19975 14.4532 7.99335 14.5721 6.82946 14.3406C5.66558 14.109 4.59648 13.5376 3.75736 12.6985C2.91825 11.8594 2.3468 10.7903 2.11529 9.62638C1.88378 8.4625 2.0026 7.2561 2.45673 6.15974C2.91085 5.06338 3.67989 4.12631 4.66658 3.46702C5.65328 2.80774 6.81331 2.45584 8 2.45584C8.92905 2.46451 9.84284 2.69296 10.6667 3.12251" stroke="#65A7FF" stroke-width="2" stroke-linecap="round" stroke-linejoin="round"/>
<path d="M14.0002 3.78918L8.00016 9.78918L5.3335 7.12252" stroke="#65A7FF" stroke-width="2" stroke-linecap="round" stroke-linejoin="round"/>
</svg>
