<svg width="24" height="24" viewBox="0 0 24 24" fill="none" xmlns="http://www.w3.org/2000/svg">
<path d="M12 9C12.3377 9.00301 12.6743 8.95926 13 8.87V21C13 21.2652 12.8946 21.5196 12.7071 21.7071C12.5196 21.8946 12.2652 22 12 22C11.7348 22 11.4804 21.8946 11.2929 21.7071C11.1054 21.5196 11 21.2652 11 21V8.87C11.3257 8.95926 11.6623 9.00301 12 9Z" fill="#3A3A3A"/>
<path d="M19 16C19.3377 16.003 19.6743 15.9593 20 15.87V21C20 21.2652 19.8946 21.5196 19.7071 21.7071C19.5196 21.8946 19.2652 22 19 22C18.7348 22 18.4804 21.8946 18.2929 21.7071C18.1054 21.5196 18 21.2652 18 21V15.87C18.3257 15.9593 18.6623 16.003 19 16Z" fill="#3A3A3A"/>
<path d="M20 3V8.13C19.3446 7.95661 18.6554 7.95661 18 8.13V3C18 2.73478 18.1054 2.48043 18.2929 2.29289C18.4804 2.10536 18.7348 2 19 2C19.2652 2 19.5196 2.10536 19.7071 2.29289C19.8946 2.48043 20 2.73478 20 3Z" fill="#3A3A3A"/>
<path d="M6 3V15.13C5.67426 15.0407 5.33774 14.997 5 15C4.66227 14.997 4.32574 15.0407 4 15.13V3C4 2.73478 4.10536 2.48043 4.29289 2.29289C4.48043 2.10536 4.73478 2 5 2C5.26522 2 5.51957 2.10536 5.70711 2.29289C5.89464 2.48043 6 2.73478 6 3Z" fill="#3A3A3A"/>
<path d="M7.99999 19C8.00153 19.5503 7.85166 20.0905 7.56676 20.5614C7.28187 21.0322 6.87293 21.4157 6.38471 21.6697C5.89649 21.9237 5.3478 22.0386 4.79869 22.0016C4.24958 21.9647 3.7212 21.7774 3.2714 21.4603C2.82159 21.1432 2.46768 20.7085 2.2484 20.2037C2.02913 19.6989 1.95293 19.1435 2.02816 18.5983C2.10338 18.0531 2.32713 17.5392 2.67492 17.1126C3.0227 16.6861 3.48111 16.3634 3.99999 16.18C4.64509 15.9402 5.35489 15.9402 5.99999 16.18C6.58354 16.3863 7.08899 16.768 7.44705 17.2729C7.80511 17.7778 7.99825 18.381 7.99999 19Z" fill="#3A3A3A"/>
<path d="M15 5C14.9983 5.61895 14.8051 6.2222 14.4471 6.72707C14.089 7.23193 13.5835 7.61369 13 7.82C12.3549 8.0598 11.6451 8.0598 11 7.82C10.4811 7.63655 10.0227 7.3139 9.67492 6.88736C9.32713 6.46082 9.10338 5.94683 9.02816 5.40164C8.95293 4.85645 9.02913 4.30108 9.2484 3.79629C9.46768 3.29151 9.82159 2.85677 10.2714 2.53966C10.7212 2.22254 11.2496 2.03527 11.7987 1.99834C12.3478 1.96141 12.8965 2.07624 13.3847 2.33027C13.8729 2.5843 14.2819 2.96773 14.5668 3.4386C14.8517 3.90948 15.0015 4.44965 15 5Z" fill="#3A3A3A"/>
<path d="M21.9999 12C21.9982 12.6189 21.805 13.2222 21.447 13.727C21.0889 14.2319 20.5835 14.6137 19.9999 14.82C19.3548 15.0598 18.645 15.0598 17.9999 14.82C17.4208 14.6098 16.9204 14.2263 16.5668 13.7218C16.2131 13.2173 16.0234 12.6161 16.0234 12C16.0234 11.3839 16.2131 10.7827 16.5668 10.2781C16.9204 9.7736 17.4208 9.39018 17.9999 9.17997C18.645 8.94017 19.3548 8.94017 19.9999 9.17997C20.5835 9.38629 21.0889 9.76804 21.447 10.2729C21.805 10.7778 21.9982 11.381 21.9999 12Z" fill="#3A3A3A"/>
</svg>
