<svg width="136" height="34" viewBox="0 0 136 34" fill="none" xmlns="http://www.w3.org/2000/svg">
<path d="M10.0744 11.9C12.457 10.3963 14.4961 10.0147 16.7905 10.2C15.888 10.7533 15.5153 11.0338 15.1115 11.05C15.8385 11.39 16.5093 11.4155 17.63 11.9C17.5536 11.6705 17.8516 11.7725 18.4695 11.9C19.6666 8.81705 22.0282 7.0329 25.1856 6.8L14.272 0L3.3584 6.8C6.44107 7.0329 8.75307 8.74055 10.0744 11.9Z" fill="#333333"/>
<path d="M10.5403 11.4751C12.7121 10.2001 12.9984 9.9238 14.8738 10.4738C14.3802 10.6488 15.7478 10.8248 15.5009 11.2498C16.0684 11.175 16.735 11.1997 17.4755 11.3748C17.7718 11.4496 18.0681 11.5499 18.3637 11.6748C18.7582 10.8996 19.2032 10.2247 19.6968 9.6246V8.74995C19.549 7.4996 17.3025 6.5 14.5137 6.5C11.7248 6.5 9.47832 7.4996 9.33057 8.74995V9.6246C9.77467 10.1746 10.1701 10.7747 10.5403 11.4742V11.4751Z" fill="#535353"/>
<path d="M17.928 11.05C17.7592 11.2744 17.4688 11.1486 17.1153 11.05C16.4513 10.9225 15.7973 10.897 15.4909 11.05C15.4833 10.5459 15.846 10.2697 16.3035 10.2C14.4659 9.5412 12.4804 9.91775 10.6167 11.05C8.58176 7.70775 5.67539 5.94995 1.68018 5.94995V23.7999L13.8664 28.0499L26.8654 23.7999V5.94995C22.7728 5.94995 19.8429 7.7579 17.9288 11.05H17.928Z" fill="#FF732B"/>
<path d="M1.6792 23.8L13.8655 28.05L26.8644 23.8V26.35L13.8655 34L1.6792 26.35V23.8ZM3.4069 19.7498V7.99935C5.55436 7.99935 7.47935 9.4996 9.20705 12.4993C9.6268 13.4241 9.6268 13.9995 9.20705 14.2494C8.59001 14.6243 7.84957 14.1245 7.23253 12.7492C6.56596 13.3238 6.22093 14.7492 6.19574 16.9992C5.99846 16.4246 5.92458 15.7488 5.99846 14.9991C4.07347 15.7488 4.123 18.1492 3.4069 19.7489V19.7498ZM25.6211 19.7498V7.99935C23.4736 7.99935 21.5486 9.4996 19.8209 12.4993C22.2891 14.1746 24.2141 16.5742 25.6211 19.7489V19.7498Z" fill="#FFDDCD"/>
<path d="M8.8368 24.2497C10.1999 24.2497 11.3049 23.1304 11.3049 21.7498C11.3049 20.3692 10.1999 19.25 8.8368 19.25C7.47368 19.25 6.36865 20.3692 6.36865 21.7498C6.36865 23.1304 7.47368 24.2497 8.8368 24.2497Z" fill="white"/>
<path d="M20.6849 24.2497C22.0481 24.2497 23.1531 23.1305 23.1531 21.7499C23.1531 20.3692 22.0481 19.25 20.6849 19.25C19.3218 19.25 18.2168 20.3692 18.2168 21.7499C18.2168 23.1305 19.3218 24.2497 20.6849 24.2497Z" fill="white"/>
<path d="M8.83661 23.0002C9.51817 23.0002 10.0707 22.4404 10.0707 21.7499C10.0707 21.0593 9.51817 20.4995 8.83661 20.4995C8.15505 20.4995 7.60254 21.0593 7.60254 21.7499C7.60254 22.4404 8.15505 23.0002 8.83661 23.0002Z" fill="#333333"/>
<path d="M20.6848 23.0001C21.3663 23.0001 21.9188 22.4403 21.9188 21.7498C21.9188 21.0593 21.3663 20.4995 20.6848 20.4995C20.0032 20.4995 19.4507 21.0593 19.4507 21.7498C19.4507 22.4403 20.0032 23.0001 20.6848 23.0001Z" fill="#333333"/>
<path d="M18.2165 18.0999C18.8981 18.0999 19.4506 17.7193 19.4506 17.2499C19.4506 16.7805 18.8981 16.3999 18.2165 16.3999C17.5349 16.3999 16.9824 16.7805 16.9824 17.2499C16.9824 17.7193 17.5349 18.0999 18.2165 18.0999Z" fill="#ED4D14"/>
<path d="M10.8112 18.0999C11.4928 18.0999 12.0453 17.7193 12.0453 17.2499C12.0453 16.7805 11.4928 16.3999 10.8112 16.3999C10.1297 16.3999 9.57715 16.7805 9.57715 17.2499C9.57715 17.7193 10.1297 18.0999 10.8112 18.0999Z" fill="#ED4D14"/>
<path d="M15.7484 30.6246H14.8845V29.6743C15.6493 29.4244 16.242 28.3993 16.242 27.874C16.242 27.2493 15.4772 26.9994 14.5143 26.9994C13.5514 26.9994 12.7866 27.2493 12.7866 27.874C12.7866 28.424 13.3793 29.4244 14.1441 29.6743V30.6246C12.8605 30.6 11.4291 30.3994 11.3057 29.4499C11.2814 29.2502 11.0833 29.0997 10.886 29.1252C10.6887 29.1499 10.5401 29.3505 10.5653 29.5502C10.7878 31.2001 12.9596 31.3752 14.5882 31.3752H15.7484C15.9457 31.3752 16.1186 31.2001 16.1186 31.0003C16.1186 30.8006 15.9457 30.6255 15.7484 30.6255V30.6246Z" fill="#333333"/>
<path d="M11.3047 5.89988V1.89978L9.82385 2.77443V5.89903C9.47798 6.14893 9.25635 6.54928 9.25635 6.99893C9.25635 7.74863 9.84904 8.32408 10.5643 8.32408C11.2804 8.32408 11.8722 7.72398 11.8722 6.99893C11.8722 6.54928 11.6498 6.12428 11.3047 5.89903V5.89988Z" fill="#48A1E6"/>
<path d="M46.8353 21.335C42.9266 21.335 40.2964 19.323 40.2964 15.6663C40.2964 12.0589 42.9501 10.0708 46.8353 9.9977V8.50085H49.3202V9.9977C53.1803 10.0716 55.8592 12.1329 55.8592 15.6663C55.8592 19.2737 53.1811 21.3103 49.3202 21.335V23.2492H46.8353V21.335ZM46.8353 19.0034V12.3284C44.2295 12.353 42.9266 13.7028 42.9266 15.6663C42.9266 17.8262 44.326 18.9796 46.8353 19.0043V19.0034ZM49.3202 12.3284V19.0034C51.9017 18.9788 53.229 17.8746 53.229 15.6655C53.229 13.7266 51.9748 12.3522 49.3202 12.3275V12.3284ZM61.9875 13.5796C65.0039 13.5796 66.9574 15.6655 66.9574 18.439C66.9574 21.2126 65.0031 23.2985 61.9875 23.2985C58.9712 23.2985 57.0177 21.2126 57.0177 18.439C57.0177 15.6655 58.972 13.5796 61.9875 13.5796ZM61.9875 21.0893C63.4349 21.0893 64.4725 20.0345 64.4725 18.439C64.4725 16.8682 63.387 15.7887 61.9875 15.7887C60.6124 15.7887 59.527 16.8198 59.527 18.439C59.527 19.9852 60.5646 21.0893 61.9875 21.0893ZM68.9848 13.8006H71.3254V23.0766H68.9848V13.8006ZM74.0999 18.218L78.033 23.0775H74.9932L71.3741 18.3906L74.6792 13.8014H77.6225L74.0999 18.218ZM86.8873 21.703C86.115 22.7579 84.7398 23.3231 83.2682 23.3231C80.3005 23.3231 78.3218 21.3843 78.3218 18.4637C78.3218 15.7641 80.2762 13.6042 83.0508 13.6042C84.5468 13.6042 85.874 13.9969 86.7177 14.8554L85.6322 16.7203C84.9329 16.0335 84.1849 15.8125 83.3639 15.8125C82.061 15.8125 80.8303 16.8189 80.8303 18.4628C80.8303 20.1067 82.0845 21.1131 83.4604 21.1131C84.4494 21.1131 85.2217 20.6465 85.801 19.9843L86.8873 21.703ZM92.7504 23.2985H92.6295C89.4444 23.2985 87.6832 21.1879 87.6832 18.439C87.6832 15.9358 89.4201 13.5796 92.6052 13.5796H92.7496V8.64705H95.0901V13.5796H95.2589C98.3953 13.5796 100.157 15.7148 100.157 18.439C100.157 21.2117 98.564 23.2985 95.2589 23.2985H95.0901V27.2008H92.7496L92.7504 23.2985ZM92.7026 21.0902H92.7748V15.7896H92.606C90.8926 15.7896 90.1933 17.017 90.1933 18.4399C90.1689 19.986 91.0135 21.0902 92.7026 21.0902ZM95.091 15.7896V21.0902H95.1632C96.8522 21.0902 97.6481 19.986 97.6481 18.4399C97.6481 17.0654 96.8757 15.7896 95.2354 15.7896H95.091ZM106.575 13.5813C109.592 13.5813 111.545 15.6672 111.545 18.4407C111.545 21.2143 109.591 23.3002 106.575 23.3002C103.56 23.3002 101.606 21.2143 101.606 18.4407C101.606 15.6672 103.56 13.5813 106.575 13.5813ZM106.575 21.091C108.023 21.091 109.06 20.0362 109.06 18.4407C109.06 16.8699 107.975 15.7904 106.575 15.7904C105.2 15.7904 104.115 16.8215 104.115 18.4407C104.115 19.9869 105.152 21.091 106.575 21.091ZM113.573 13.8023H115.913V14.6854C116.492 14.0717 117.554 13.5813 118.736 13.5813C121.246 13.5813 122.863 15.5694 122.863 18.2928C122.863 21.1148 120.957 23.2993 118.037 23.2993C117.217 23.2993 116.445 23.1523 115.914 22.8573V27.2008H113.574L113.573 13.8023ZM115.889 16.8206V20.5751C116.516 20.9924 117.047 21.1148 117.819 21.1148C119.436 21.1148 120.376 19.9121 120.376 18.3659C120.376 16.8937 119.532 15.8134 117.988 15.8134C117.192 15.7887 116.467 16.1814 115.889 16.8198V16.8206ZM123.489 20.87H124.647C125.299 20.0115 125.806 18.1211 125.926 16.0352L126.07 13.8023H132.802V20.87H134.322V25.2382H132.102V23.0783H125.636V25.2382H123.465V20.87H123.489ZM127.06 20.87H130.438V16.0352H128.219L128.147 16.9923C127.978 18.9312 127.471 20.3056 127.061 20.87H127.06Z" fill="#333333"/>
</svg>
