<svg width="67" height="19" viewBox="0 0 67 19" fill="none" xmlns="http://www.w3.org/2000/svg">
<path d="M0.517045 18V0.545454H4.20739V14.9574H11.6903V18H0.517045ZM29.4943 9.27273C29.4943 11.1761 29.1335 12.7955 28.4119 14.1307C27.696 15.4659 26.7188 16.4858 25.4801 17.1903C24.2472 17.8892 22.8608 18.2386 21.321 18.2386C19.7699 18.2386 18.3778 17.8864 17.1449 17.1818C15.9119 16.4773 14.9375 15.4574 14.2216 14.1222C13.5057 12.7869 13.1477 11.1705 13.1477 9.27273C13.1477 7.36932 13.5057 5.75 14.2216 4.41477C14.9375 3.07955 15.9119 2.0625 17.1449 1.36364C18.3778 0.659091 19.7699 0.306818 21.321 0.306818C22.8608 0.306818 24.2472 0.659091 25.4801 1.36364C26.7188 2.0625 27.696 3.07955 28.4119 4.41477C29.1335 5.75 29.4943 7.36932 29.4943 9.27273ZM25.7528 9.27273C25.7528 8.03977 25.5682 7 25.1989 6.15341C24.8352 5.30682 24.321 4.66477 23.6562 4.22727C22.9915 3.78977 22.2131 3.57102 21.321 3.57102C20.429 3.57102 19.6506 3.78977 18.9858 4.22727C18.321 4.66477 17.804 5.30682 17.4347 6.15341C17.071 7 16.8892 8.03977 16.8892 9.27273C16.8892 10.5057 17.071 11.5455 17.4347 12.392C17.804 13.2386 18.321 13.8807 18.9858 14.3182C19.6506 14.7557 20.429 14.9744 21.321 14.9744C22.2131 14.9744 22.9915 14.7557 23.6562 14.3182C24.321 13.8807 24.8352 13.2386 25.1989 12.392C25.5682 11.5455 25.7528 10.5057 25.7528 9.27273ZM43.8018 6.1875C43.6825 5.77273 43.5149 5.40625 43.299 5.08807C43.0831 4.7642 42.8189 4.49148 42.5064 4.26989C42.1996 4.04261 41.8473 3.86932 41.4496 3.75C41.0575 3.63068 40.6229 3.57102 40.1456 3.57102C39.2536 3.57102 38.4695 3.79261 37.7933 4.23579C37.1229 4.67898 36.6001 5.32386 36.2251 6.17045C35.8501 7.01136 35.6626 8.03977 35.6626 9.25568C35.6626 10.4716 35.8473 11.5057 36.2166 12.358C36.5859 13.2102 37.1087 13.8608 37.7848 14.3097C38.4609 14.7528 39.2592 14.9744 40.1797 14.9744C41.0149 14.9744 41.728 14.8267 42.3189 14.5312C42.9155 14.2301 43.37 13.8068 43.6825 13.2614C44.0007 12.7159 44.1598 12.071 44.1598 11.3267L44.9098 11.4375H40.4098V8.65909H47.7138V10.858C47.7138 12.392 47.3899 13.7102 46.7422 14.8125C46.0945 15.9091 45.2024 16.7557 44.0661 17.3523C42.9297 17.9432 41.6286 18.2386 40.1626 18.2386C38.5263 18.2386 37.0888 17.8778 35.8501 17.1562C34.6115 16.429 33.6456 15.3977 32.9524 14.0625C32.2649 12.7216 31.9212 11.1307 31.9212 9.28977C31.9212 7.875 32.1257 6.61364 32.5348 5.50568C32.9496 4.39205 33.5291 3.44886 34.2734 2.67614C35.0178 1.90341 35.8842 1.31534 36.8729 0.911931C37.8615 0.508522 38.9325 0.306818 40.0859 0.306818C41.0746 0.306818 41.995 0.451704 42.8473 0.741477C43.6996 1.02557 44.4553 1.42898 45.1143 1.9517C45.7791 2.47443 46.3217 3.09659 46.7422 3.81818C47.1626 4.53409 47.4325 5.32386 47.5518 6.1875H43.8018ZM66.5256 9.27273C66.5256 11.1761 66.1648 12.7955 65.4432 14.1307C64.7273 15.4659 63.75 16.4858 62.5114 17.1903C61.2784 17.8892 59.892 18.2386 58.3523 18.2386C56.8011 18.2386 55.4091 17.8864 54.1761 17.1818C52.9432 16.4773 51.9688 15.4574 51.2528 14.1222C50.5369 12.7869 50.179 11.1705 50.179 9.27273C50.179 7.36932 50.5369 5.75 51.2528 4.41477C51.9688 3.07955 52.9432 2.0625 54.1761 1.36364C55.4091 0.659091 56.8011 0.306818 58.3523 0.306818C59.892 0.306818 61.2784 0.659091 62.5114 1.36364C63.75 2.0625 64.7273 3.07955 65.4432 4.41477C66.1648 5.75 66.5256 7.36932 66.5256 9.27273ZM62.7841 9.27273C62.7841 8.03977 62.5994 7 62.2301 6.15341C61.8665 5.30682 61.3523 4.66477 60.6875 4.22727C60.0227 3.78977 59.2443 3.57102 58.3523 3.57102C57.4602 3.57102 56.6818 3.78977 56.017 4.22727C55.3523 4.66477 54.8352 5.30682 54.4659 6.15341C54.1023 7 53.9205 8.03977 53.9205 9.27273C53.9205 10.5057 54.1023 11.5455 54.4659 12.392C54.8352 13.2386 55.3523 13.8807 56.017 14.3182C56.6818 14.7557 57.4602 14.9744 58.3523 14.9744C59.2443 14.9744 60.0227 14.7557 60.6875 14.3182C61.3523 13.8807 61.8665 13.2386 62.2301 12.392C62.5994 11.5455 62.7841 10.5057 62.7841 9.27273Z" fill="white"/>
</svg>
