<svg width="32" height="32" viewBox="0 0 32 32" fill="none" xmlns="http://www.w3.org/2000/svg">
<path d="M28.0001 25.3333H4.00008C3.64646 25.3333 3.30732 25.1928 3.05727 24.9428C2.80722 24.6927 2.66675 24.3536 2.66675 24C2.66675 23.6463 2.80722 23.3072 3.05727 23.0571C3.30732 22.8071 3.64646 22.6666 4.00008 22.6666H28.0001C28.3537 22.6666 28.6928 22.8071 28.9429 23.0571C29.1929 23.3072 29.3334 23.6463 29.3334 24C29.3334 24.3536 29.1929 24.6927 28.9429 24.9428C28.6928 25.1928 28.3537 25.3333 28.0001 25.3333Z" fill="#3A3A3A"/>
<path d="M28.0001 17.3333H4.00008C3.64646 17.3333 3.30732 17.1928 3.05727 16.9428C2.80722 16.6927 2.66675 16.3536 2.66675 16C2.66675 15.6463 2.80722 15.3072 3.05727 15.0572C3.30732 14.8071 3.64646 14.6666 4.00008 14.6666H28.0001C28.3537 14.6666 28.6928 14.8071 28.9429 15.0572C29.1929 15.3072 29.3334 15.6463 29.3334 16C29.3334 16.3536 29.1929 16.6927 28.9429 16.9428C28.6928 17.1928 28.3537 17.3333 28.0001 17.3333Z" fill="#3A3A3A"/>
<path d="M28.0001 9.33329H4.00008C3.64646 9.33329 3.30732 9.19282 3.05727 8.94277C2.80722 8.69272 2.66675 8.35358 2.66675 7.99996C2.66675 7.64634 2.80722 7.3072 3.05727 7.05715C3.30732 6.8071 3.64646 6.66663 4.00008 6.66663H28.0001C28.3537 6.66663 28.6928 6.8071 28.9429 7.05715C29.1929 7.3072 29.3334 7.64634 29.3334 7.99996C29.3334 8.35358 29.1929 8.69272 28.9429 8.94277C28.6928 9.19282 28.3537 9.33329 28.0001 9.33329Z" fill="#3A3A3A"/>
</svg>
