<svg width="26" height="26" viewBox="0 0 26 26" fill="none" xmlns="http://www.w3.org/2000/svg">
<path d="M25 25L17 17M19.6667 10.3333C19.6667 12.1793 19.1193 13.9838 18.0937 15.5187C17.0682 17.0535 15.6105 18.2498 13.905 18.9562C12.1996 19.6626 10.323 19.8475 8.51249 19.4873C6.702 19.1272 5.03896 18.2383 3.73367 16.933C2.42838 15.6277 1.53947 13.9647 1.17934 12.1542C0.819213 10.3437 1.00404 8.46706 1.71046 6.76162C2.41688 5.05618 3.61316 3.59851 5.14801 2.57295C6.68287 1.54739 8.48738 1 10.3333 1C12.8087 1 15.1827 1.98333 16.933 3.73367C18.6833 5.48401 19.6667 7.85798 19.6667 10.3333V10.3333Z" stroke="#3A3A3A" stroke-width="2" stroke-linecap="round" stroke-linejoin="round"/>
</svg>
