<svg width="16" height="16" viewBox="0 0 16 16" fill="none" xmlns="http://www.w3.org/2000/svg">
<path fill-rule="evenodd" clip-rule="evenodd" d="M8.80639 2.92472L8.86185 2.86192C9.10217 2.6216 9.48032 2.60311 9.74185 2.80646L9.80466 2.86192L14.4713 7.52859L14.4989 7.55789L14.5357 7.60312L14.5835 7.67728L14.6191 7.75243L14.6427 7.82266L14.662 7.92126L14.6666 7.99999L14.6647 8.05015L14.6531 8.13381L14.6334 8.20808L14.6041 8.28214L14.5693 8.34713L14.5201 8.41696L14.4713 8.47139L9.80466 13.1381C9.54431 13.3984 9.1222 13.3984 8.86185 13.1381C8.62153 12.8977 8.60304 12.5196 8.80639 12.2581L8.86185 12.1953L12.3893 8.66666H1.99992C1.63173 8.66666 1.33325 8.36818 1.33325 7.99999C1.33325 7.6318 1.63173 7.33332 1.99992 7.33332H12.3906L8.86185 3.80473C8.62153 3.5644 8.60304 3.18625 8.80639 2.92472L8.86185 2.86192L8.80639 2.92472Z" fill="#858585"/>
</svg>
